
<svg xmlns="http://www.w3.org/2000/svg" version="1.1" xmlns:xlink="http://www.w3.org/1999/xlink" preserveAspectRatio="none" x="0px" y="0px" width="30px" height="30px" viewBox="0 0 30 30">
<defs>
<g id="pays_albanie_0_Layer5_0_FILL">
<path fill="#CC0000" stroke="none" d="
M 5.35 24.6
Q 9.35 28.6 15 28.6 20.6 28.6 24.65 24.6 28.6 20.6 28.6 15 28.6 9.35 24.65 5.35 20.6 1.4 15 1.4 9.35 1.4 5.35 5.35 1.4 9.35 1.4 15 1.4 20.6 5.35 24.6 Z"/>
</g>

<g id="Mask_pays_albanie_0_4_MASK_0_FILL">
<path fill="#FFFFFF" stroke="none" d="
M 5.35 24.6
Q 9.35 28.6 15 28.6 20.6 28.6 24.65 24.6 28.6 20.6 28.6 15 28.6 9.35 24.65 5.35 20.6 1.4 15 1.4 9.35 1.4 5.35 5.35 1.4 9.35 1.4 15 1.4 20.6 5.35 24.6 Z"/>
</g>

<g id="pays_albanie_0_Layer3_0_FILL">
<path fill="#000000" stroke="none" d="
M 19.5 19.5
Q 21.45 17.55 21.45 14.95 21.45 12.25 19.5 10.3 17.55 8.45 14.95 8.45 12.25 8.45 10.3 10.3 8.45 12.25 8.45 14.95 8.45 17.55 10.3 19.5 12.25 21.45 14.95 21.45 17.55 21.45 19.5 19.5 Z"/>
</g>

<path id="pays_albanie_0_Layer0_0_1_STROKES" stroke="#990000" stroke-width="2" stroke-linejoin="round" stroke-linecap="round" fill="none" d="
M 15 28.6
Q 9.35 28.6 5.35 24.6 1.4 20.6 1.4 15 1.4 9.35 5.35 5.35 9.35 1.4 15 1.4 20.6 1.4 24.65 5.35 28.6 9.35 28.6 15 28.6 20.6 24.65 24.6 20.6 28.6 15 28.6 Z"/>
</defs>

<g transform="matrix( 1, 0, 0, 1, 0,0) ">
<g transform="matrix( 1, 0, 0, 1, 0,0) ">
<use xlink:href="#pays_albanie_0_Layer5_0_FILL"/>
</g>

<mask id="Mask_Mask_1">
<g transform="matrix( 1, 0, 0, 1, 0,0) ">
<use xlink:href="#Mask_pays_albanie_0_4_MASK_0_FILL"/>
</g>
</mask>

<g mask="url(#Mask_Mask_1)"/>

<g mask="url(#Mask_Mask_1)">
<g transform="matrix( 1, 0, 0, 1, 0,0) ">
<use xlink:href="#pays_albanie_0_Layer3_0_FILL"/>
</g>
</g>

<g transform="matrix( 1, 0, 0, 1, 0,0) ">
<use xlink:href="#pays_albanie_0_Layer0_0_1_STROKES"/>
</g>
</g>
</svg>
