
<svg xmlns="http://www.w3.org/2000/svg" version="1.1" xmlns:xlink="http://www.w3.org/1999/xlink" preserveAspectRatio="none" x="0px" y="0px" width="30px" height="30px" viewBox="0 0 30 30">
<defs>
<g id="pays_autriche_0_Layer4_0_FILL">
<path fill="#FFFFFF" stroke="none" d="
M 5.35 24.6
Q 9.35 28.6 15 28.6 20.6 28.6 24.65 24.6 28.6 20.6 28.6 15 28.6 9.35 24.65 5.35 20.6 1.4 15 1.4 9.35 1.4 5.35 5.35 1.4 9.35 1.4 15 1.4 20.6 5.35 24.6 Z"/>
</g>

<g id="Mask_pays_autriche_0_3_MASK_0_FILL">
<path fill="#FFFFFF" stroke="none" d="
M 5.35 24.6
Q 9.35 28.6 15 28.6 20.6 28.6 24.65 24.6 28.6 20.6 28.6 15 28.6 9.35 24.65 5.35 20.6 1.4 15 1.4 9.35 1.4 5.35 5.35 1.4 9.35 1.4 15 1.4 20.6 5.35 24.6 Z"/>
</g>

<g id="pays_autriche_0_Layer3_0_FILL">
<path fill="#FF0000" stroke="none" d="
M -6.7 0
L -11.55 0 -11.55 29.95 -6.7 29.95 -6.7 0 Z"/>
</g>

<g id="pays_autriche_0_Layer3_1_FILL">
<path fill="#FFFFFF" stroke="none" d="
M -6.7 0
L -11.55 0 -11.55 29.95 -6.7 29.95 -6.7 0 Z"/>
</g>

<g id="pays_autriche_0_Layer3_2_FILL">
<path fill="#FF0000" stroke="none" d="
M -6.7 0
L -11.55 0 -11.55 29.95 -6.7 29.95 -6.7 0 Z"/>
</g>

<path id="pays_autriche_0_Layer0_0_1_STROKES" stroke="#990000" stroke-width="2" stroke-linejoin="round" stroke-linecap="round" fill="none" d="
M 15 28.6
Q 9.35 28.6 5.35 24.6 1.4 20.6 1.4 15 1.4 9.35 5.35 5.35 9.35 1.4 15 1.4 20.6 1.4 24.65 5.35 28.6 9.35 28.6 15 28.6 20.6 24.65 24.6 20.6 28.6 15 28.6 Z"/>
</defs>

<g transform="matrix( 1, 0, 0, 1, 0,0) ">
<g transform="matrix( 1, 0, 0, 1, 0,0) ">
<use xlink:href="#pays_autriche_0_Layer4_0_FILL"/>
</g>

<mask id="Mask_Mask_1">
<g transform="matrix( 1, 0, 0, 1, 0,0) ">
<use xlink:href="#Mask_pays_autriche_0_3_MASK_0_FILL"/>
</g>
</mask>

<g mask="url(#Mask_Mask_1)">
<g transform="matrix( 0, -1.8839111328125, 1, 0, 0.05,6.8) ">
<use xlink:href="#pays_autriche_0_Layer3_0_FILL"/>
</g>

<g transform="matrix( 0, -1.8839111328125, 1, 0, 0.05,-2.25) ">
<use xlink:href="#pays_autriche_0_Layer3_1_FILL"/>
</g>

<g transform="matrix( 0, -1.8839111328125, 1, 0, 0.05,-11.3) ">
<use xlink:href="#pays_autriche_0_Layer3_2_FILL"/>
</g>
</g>

<g transform="matrix( 1, 0, 0, 1, 0,0) ">
<use xlink:href="#pays_autriche_0_Layer0_0_1_STROKES"/>
</g>
</g>
</svg>
