
<svg xmlns="http://www.w3.org/2000/svg" version="1.1" xmlns:xlink="http://www.w3.org/1999/xlink" preserveAspectRatio="none" x="0px" y="0px" width="30px" height="30px" viewBox="0 0 30 30">
<defs>
<g id="basket_NBA_indiana_Pacers_0_Layer5_0_FILL">
<path fill="#FFCC00" stroke="none" d="
M 5.35 24.6
Q 9.35 28.6 15 28.6 20.6 28.6 24.65 24.6 28.6 20.6 28.6 15 28.6 9.35 24.65 5.35 20.6 1.4 15 1.4 9.35 1.4 5.35 5.35 1.4 9.35 1.4 15 1.4 20.6 5.35 24.6 Z"/>
</g>

<g id="Mask_basket_NBA_indiana_Pacers_0_4_MASK_0_FILL">
<path fill="#FFFFFF" stroke="none" d="
M 5.35 24.6
Q 9.35 28.6 15 28.6 20.6 28.6 24.65 24.6 28.6 20.6 28.6 15 28.6 9.35 24.65 5.35 20.6 1.4 15 1.4 9.35 1.4 5.35 5.35 1.4 9.35 1.4 15 1.4 20.6 5.35 24.6 Z"/>
</g>

<g id="basket_NBA_indiana_Pacers_0_Layer3_0_FILL">
<path fill="#FFCC00" stroke="none" d="
M 16.75 12.25
L 16.75 8.5 -4.5 8.5 -4.5 12.25 16.75 12.25 Z"/>
</g>

<g id="basket_NBA_indiana_Pacers_0_Layer3_1_FILL">
<path fill="#FFCC00" stroke="none" d="
M 16.75 12.25
L 16.75 8.5 -4.5 8.5 -4.5 12.25 16.75 12.25 Z"/>
</g>

<g id="basket_NBA_indiana_Pacers_0_Layer3_2_FILL">
<path fill="#FFCC00" stroke="none" d="
M 16.75 12.25
L 16.75 8.5 -4.5 8.5 -4.5 12.25 16.75 12.25 Z"/>
</g>

<path id="basket_NBA_indiana_Pacers_0_Layer4_0_1_STROKES" stroke="#000033" stroke-width="5" stroke-linejoin="round" stroke-linecap="round" fill="none" d="
M 22.45 7.5
Q 25.55 10.6 25.55 14.95 25.55 19.35 22.45 22.4 19.35 25.55 14.95 25.55 10.6 25.55 7.5 22.4 4.45 19.35 4.45 14.95 4.45 10.6 7.5 7.5 10.6 4.45 14.95 4.45 19.35 4.45 22.45 7.5 Z"/>

<path id="basket_NBA_indiana_Pacers_0_Layer0_0_1_STROKES" stroke="#999999" stroke-width="2" stroke-linejoin="round" stroke-linecap="round" fill="none" d="
M 15 28.6
Q 9.35 28.6 5.35 24.6 1.4 20.6 1.4 15 1.4 9.35 5.35 5.35 9.35 1.4 15 1.4 20.6 1.4 24.65 5.35 28.6 9.35 28.6 15 28.6 20.6 24.65 24.6 20.6 28.6 15 28.6 Z"/>
</defs>

<g transform="matrix( 1, 0, 0, 1, 0,0) ">
<g transform="matrix( 1, 0, 0, 1, 0,0) ">
<use xlink:href="#basket_NBA_indiana_Pacers_0_Layer5_0_FILL"/>
</g>

<mask id="Mask_Mask_1">
<g transform="matrix( 1, 0, 0, 1, 0,0) ">
<use xlink:href="#Mask_basket_NBA_indiana_Pacers_0_4_MASK_0_FILL"/>
</g>
</mask>

<g mask="url(#Mask_Mask_1)">
<g transform="matrix( 1, 0, 0, 1, 0,0) ">
<use xlink:href="#basket_NBA_indiana_Pacers_0_Layer4_0_1_STROKES"/>
</g>
</g>

<g mask="url(#Mask_Mask_1)">
<g transform="matrix( 1, 0, 0, 0.828948974609375, -1.7,-0.1) ">
<use xlink:href="#basket_NBA_indiana_Pacers_0_Layer3_0_FILL"/>
</g>

<g transform="matrix( 1, 0, 0, 0.828948974609375, -1.7,12.95) ">
<use xlink:href="#basket_NBA_indiana_Pacers_0_Layer3_1_FILL"/>
</g>

<g transform="matrix( 1, 0, 0, 0.828948974609375, -0.6,6.4) ">
<use xlink:href="#basket_NBA_indiana_Pacers_0_Layer3_2_FILL"/>
</g>
</g>

<g transform="matrix( 1, 0, 0, 1, 0,0) ">
<use xlink:href="#basket_NBA_indiana_Pacers_0_Layer0_0_1_STROKES"/>
</g>
</g>
</svg>
