
<svg xmlns="http://www.w3.org/2000/svg" version="1.1" xmlns:xlink="http://www.w3.org/1999/xlink" preserveAspectRatio="none" x="0px" y="0px" width="30px" height="30px" viewBox="0 0 30 30">
<defs>
<g id="basket_NBA_Milwaukee_0_Layer5_0_FILL">
<path fill="#006600" stroke="none" d="
M 5.35 24.6
Q 9.35 28.6 15 28.6 20.6 28.6 24.65 24.6 28.6 20.6 28.6 15 28.6 9.35 24.65 5.35 20.6 1.4 15 1.4 9.35 1.4 5.35 5.35 1.4 9.35 1.4 15 1.4 20.6 5.35 24.6 Z"/>
</g>

<g id="Mask_basket_NBA_Milwaukee_0_4_MASK_0_FILL">
<path fill="#FFFFFF" stroke="none" d="
M 5.35 24.6
Q 9.35 28.6 15 28.6 20.6 28.6 24.65 24.6 28.6 20.6 28.6 15 28.6 9.35 24.65 5.35 20.6 1.4 15 1.4 9.35 1.4 5.35 5.35 1.4 9.35 1.4 15 1.4 20.6 5.35 24.6 Z"/>
</g>

<g id="basket_NBA_Milwaukee_0_Layer4_0_FILL">
<path fill="#FFFFFF" stroke="none" d="
M 18 4
L 12.4 4 12.4 27 18 27 18 4 Z"/>
</g>

<g id="basket_NBA_Milwaukee_0_Layer4_1_FILL">
<path fill="#FFFFFF" stroke="none" d="
M 18 4
L 12.4 4 12.4 27 18 27 18 4 Z"/>
</g>

<path id="basket_NBA_Milwaukee_0_Layer3_0_1_STROKES" stroke="#FFFFFF" stroke-width="3" stroke-linejoin="round" stroke-linecap="round" fill="none" d="
M 23.1 7
Q 26.35 10.3 26.35 15 26.35 19.65 23.1 23.1 19.65 26.35 15 26.35 10.3 26.35 7 23.1 3.75 19.65 3.75 15 3.75 10.3 7 7 10.3 3.75 15 3.75 19.65 3.75 23.1 7 Z"/>

<path id="basket_NBA_Milwaukee_0_Layer3_0_2_STROKES" stroke="#006600" stroke-width="1.5" stroke-linejoin="round" stroke-linecap="round" fill="none" d="
M 21.6 8.55
Q 24.25 11.2 24.25 15 24.25 18.8 21.6 21.6 18.8 24.25 15.05 24.25 11.2 24.25 8.55 21.6 5.85 18.8 5.85 15 5.85 11.2 8.55 8.55 11.2 5.85 15.05 5.85 18.8 5.85 21.6 8.55 Z"/>

<path id="basket_NBA_Milwaukee_0_Layer0_0_1_STROKES" stroke="#006600" stroke-width="2" stroke-linejoin="round" stroke-linecap="round" fill="none" d="
M 15 28.6
Q 9.35 28.6 5.35 24.6 1.4 20.6 1.4 15 1.4 9.35 5.35 5.35 9.35 1.4 15 1.4 20.6 1.4 24.65 5.35 28.6 9.35 28.6 15 28.6 20.6 24.65 24.6 20.6 28.6 15 28.6 Z"/>
</defs>

<g transform="matrix( 1, 0, 0, 1, 0,0) ">
<g transform="matrix( 1, 0, 0, 1, 0,0) ">
<use xlink:href="#basket_NBA_Milwaukee_0_Layer5_0_FILL"/>
</g>

<mask id="Mask_Mask_1">
<g transform="matrix( 1, 0, 0, 1, 0,0) ">
<use xlink:href="#Mask_basket_NBA_Milwaukee_0_4_MASK_0_FILL"/>
</g>
</mask>

<g mask="url(#Mask_Mask_1)">
<g transform="matrix( -0.83551025390625, 0, 0, 0.92608642578125, 24.2,0.85) ">
<use xlink:href="#basket_NBA_Milwaukee_0_Layer4_0_FILL"/>
</g>

<g transform="matrix( -0.83551025390625, 0, 0, 0.92608642578125, 31.25,0.85) ">
<use xlink:href="#basket_NBA_Milwaukee_0_Layer4_1_FILL"/>
</g>
</g>

<g mask="url(#Mask_Mask_1)">
<g transform="matrix( 1, 0, 0, 1, 0,0) ">
<use xlink:href="#basket_NBA_Milwaukee_0_Layer3_0_1_STROKES"/>

<use xlink:href="#basket_NBA_Milwaukee_0_Layer3_0_2_STROKES"/>
</g>
</g>

<g transform="matrix( 1, 0, 0, 1, 0,0) ">
<use xlink:href="#basket_NBA_Milwaukee_0_Layer0_0_1_STROKES"/>
</g>
</g>
</svg>
