<?xml version="1.0" encoding="utf-8"?>
<!-- Generator: Adobe Illustrator 16.0.0, SVG Export Plug-In . SVG Version: 6.00 Build 0)  -->
<!DOCTYPE svg PUBLIC "-//W3C//DTD SVG 1.1//EN" "http://www.w3.org/Graphics/SVG/1.1/DTD/svg11.dtd">
<svg version="1.1" id="Calque_1" xmlns="http://www.w3.org/2000/svg" xmlns:xlink="http://www.w3.org/1999/xlink" x="0px" y="0px"
	 width="900px" height="486.572px" viewBox="0 0 900 486.572" enable-background="new 0 0 900 486.572" xml:space="preserve">
<title>PMUfr-SPORT_N1duPari_vertical</title>
<g id="Calque_2_1_">
	<g id="Calque_1-2">
		<g>
			<g>
				<g>
					<defs>
						<rect id="SVGID_1_" width="900" height="651.942"/>
					</defs>
					<clipPath id="SVGID_2_">
						<use xlink:href="#SVGID_1_"  overflow="visible"/>
					</clipPath>
					<g clip-path="url(#SVGID_2_)">
						<path fill="#DC4605" d="M692.332,486.573H0V208.622L207.668,0L900,276.679L692.332,486.573z"/>
						<path fill="#FFFFFF" d="M900,276.679H206.714V0H900V276.679z"/>
						<path fill="#FFFFFF" d="M426.467,355.229v69.646h-21.626v-69.646h-24.487v-15.582h70.602v15.582H426.467L426.467,355.229z
							 M380.672,424.876h-21.626l-17.491-30.529h-12.721v30.529h-20.672v-85.229c8.587-0.318,16.854-0.955,27.351-0.955
							c21.308,0,39.436,4.137,39.436,27.668v0.955c0,12.721-5.089,19.398-13.357,23.533L380.672,424.876z M354.594,366.36
							c0-9.541-5.406-11.766-18.127-11.766c-2.861,0-4.771,0-7.633,0v24.805h7.633c12.721,0,17.81-2.861,17.81-12.402v-0.637
							H354.594L354.594,366.36z M257.279,426.784c-21.943,0-36.891-10.812-36.891-40.07v-8.586c0-29.576,15.265-40.07,36.891-40.07
							s37.208,10.494,37.208,40.07v8.586C294.169,416.29,279.223,426.784,257.279,426.784L257.279,426.784z M273.18,378.128
							c0-17.811-5.724-23.533-15.901-23.533c-10.177,0-15.901,5.725-15.901,23.533v8.586c0,18.127,6.042,23.533,15.901,23.533
							c9.858,0,15.901-5.406,15.901-23.533V378.128z M173.003,395.937c-2.862,0-5.406,0-8.586,0v29.258h-20.354v-85.547
							c9.541-0.637,17.491-0.955,27.032-0.955c22.262,0,39.753,4.137,39.753,27.668v1.273
							C211.166,391.485,193.357,395.618,173.003,395.937L173.003,395.937z M190.177,366.36c0-9.857-6.042-11.766-17.809-11.766
							c-2.862,0-5.725,0-7.951,0v24.805h7.951c11.767,0,17.809-2.227,17.809-12.084V366.36z M109.399,374.948
							c14.311,5.725,20.671,12.721,20.671,26.076c0,17.811-12.085,26.078-32.438,26.078c-9.541,0-19.081-0.953-28.622-2.861v-13.992
							c7.314,0.637,15.265,1.271,26.396,1.271c9.541,0,13.675-2.863,13.675-9.223c0-4.771-2.226-6.68-10.176-10.178l-12.403-5.406
							c-12.085-5.088-19.717-11.131-19.717-25.441c0-16.854,11.767-23.533,33.074-23.533c8.586,0,17.491,0.953,26.078,2.861v13.676
							c-7.951-0.637-15.265-1.271-24.806-1.271c-8.587,0-13.357,1.59-13.357,7.633c0,4.451,1.908,6.043,9.541,9.223L109.399,374.948
							z"/>
						<path fill="#00692D" d="M662.756,161.237h-0.954c-13.675,0-24.806,11.131-24.486,24.807c0,3.18,0.636,6.042,1.907,8.904
							c-10.177,5.406-23.532,8.269-40.069,8.269c-31.484,0-46.75-18.445-41.344-37.526c4.771-17.49,18.444-68.057,20.354-75.053
							c2.545-9.858,9.859-16.219,24.806-16.219h7.951l-26.078,93.816c-1.271,2.861,0,6.041,2.544,7.631
							c5.406,3.181,11.769,4.771,18.128,4.771c8.27,0,16.22-1.908,23.533-5.724c1.908-1.59,3.498-3.498,4.134-6.043
							c4.453-15.582,19.719-70.918,21.626-78.232c2.544-9.858,9.858-16.219,24.807-16.219h6.996
							C681.201,94.135,672.297,125.937,662.756,161.237z M511.696,203.216c-4.136,0-7.95,0-7.95,0
							c0.953-3.498,20.035-73.463,20.035-73.463s-41.025,51.52-45.159,56.608c-2.544,2.861-6.36,4.771-10.177,4.451
							c-1.908,0-4.136,0-6.68,0c-4.134,0-6.042-0.636-7.313-5.088c-1.59-5.406-16.219-55.652-16.219-55.652
							s-1.908,8.586-4.136,17.49c-5.088,19.082-8.586,32.12-10.494,39.436c-2.545,9.541-9.223,16.537-22.896,16.537h-7.314
							l34.982-128.799h6.042c10.495,0,15.901,3.816,18.445,11.767c1.907,6.36,20.671,70.283,20.671,70.283
							s57.244-71.236,60.105-74.417c4.452-5.406,13.039-7.632,24.807-7.632h7.633c-3.499,13.039-29.896,110.67-30.53,112.262
							C532.367,196.538,526.325,203.216,511.696,203.216z M360.954,156.467h-43.569c0,0-5.724,21.625-7.95,30.212
							c-2.544,9.541-9.857,16.537-24.806,16.537h-7.632c1.59-6.042,6.678-25.441,30.848-114.169c-0.637,0-12.721-3.18-19.399-4.771
							c-7.951-1.908-9.223-5.724-8.587-9.541h102.403c11.448,0,23.215,3.499,23.215,26.714
							C405.159,128.163,386.714,156.467,360.954,156.467z M376.537,102.721c-0.318-2.862-2.544-5.406-5.406-5.406h-37.845
							l-10.177,38.48h38.479c1.908,0,3.816-0.637,5.406-1.908C374.311,125.301,377.81,113.852,376.537,102.721z"/>
						<path fill="#B9021E" d="M828.764,142.792l-0.317,0.955c-2.862,11.131-11.131,20.035-21.943,23.533l8.904,33.393
							c0,0.318,0,0.636,0,0.954c0,0.954-0.954,1.271-1.59,1.271h-13.993c-1.272,0-1.272-1.271-1.59-2.226l-8.27-30.53h-1.59
							c-2.862,0-7.314-0.317-10.177-0.317l-8.27,31.166c-0.317,1.271-1.591,2.226-2.861,2.226h-11.449
							c-0.954,0-1.59-0.636-1.908-1.59c0-0.318,0-0.318,0-0.636l21.308-78.869c0.637-2.227,2.228-3.18,4.452-3.499
							c7.633-0.954,15.267-1.59,22.897-1.59C820.495,117.032,833.852,123.392,828.764,142.792z M799.188,130.708
							c-2.544,0-8.269,0.317-10.177,0.317l-6.997,25.761c1.908,0,8.271,0.317,10.178,0.317c11.768,0,18.128-3.18,20.672-13.356
							l0.317-0.955C815.088,134.206,810.636,130.708,799.188,130.708L799.188,130.708z M760.07,128.163
							c-0.317,1.272-1.59,2.227-2.861,2.227h-23.216c-6.679,0-9.541,2.227-11.768,9.857l-3.499,12.403h31.166
							c0.954,0,1.592,0.636,1.908,1.591c0,0.317,0,0.317,0,0.635l-2.226,8.269c-0.318,1.272-1.59,2.228-2.862,2.228h-30.848
							l-9.541,34.981c-0.318,1.272-1.59,2.226-2.862,2.226h-11.131c-0.954,0-1.59-0.636-1.908-1.59c0-0.317,0-0.317,0-0.636
							l16.22-60.424c5.406-19.399,17.81-23.534,32.756-23.534c6.996-0.318,14.312,0.318,21.309,1.59
							c1.59,0.318,1.908,0.636,1.59,2.545L760.07,128.163z M661.802,203.216c-7.632,0-14.311-5.088-16.537-12.403
							c-0.636-1.59-0.954-3.498-0.954-5.406c0-9.223,6.997-16.854,16.221-17.49h1.271c9.541,0,17.491,7.951,17.491,17.49
							C679.293,194.948,671.661,203.216,661.802,203.216L661.802,203.216L661.802,203.216z"/>
					</g>
				</g>
			</g>
		</g>
	</g>
</g>
</svg>
